<?xml version="1.0" standalone="no"?>
<!DOCTYPE svg PUBLIC "-//W3C//DTD SVG 20010904//EN"
 "http://www.w3.org/TR/2001/REC-SVG-20010904/DTD/svg10.dtd">
<svg version="1.0" xmlns="http://www.w3.org/2000/svg"
 width="145.000000pt" height="160.000000pt" viewBox="0 0 145.000000 160.000000"
 preserveAspectRatio="xMidYMid meet">

<g transform="translate(0.000000,160.000000) scale(0.100000,-0.100000)"
fill="#000000" stroke="none">
<path d="M737 1390 c-2 -8 -21 -98 -40 -199 -20 -101 -39 -187 -44 -192 -5 -5
-49 17 -98 49 -50 32 -97 62 -105 67 -8 4 46 -55 120 -132 74 -77 138 -141
141 -142 4 0 10 41 13 92 15 202 30 220 38 42 3 -64 9 -120 14 -123 5 -4 71
55 147 132 75 76 131 136 123 133 -8 -3 -56 -33 -107 -67 -50 -34 -95 -57
-100 -53 -4 4 -24 89 -44 188 -38 191 -49 231 -58 205z"/>
<path d="M403 1068 c9 -15 42 -65 72 -113 65 -101 73 -90 -101 -125 -60 -12
-136 -28 -170 -36 -33 -8 -68 -14 -77 -14 -9 0 -17 -3 -17 -7 0 -5 91 -26 201
-47 131 -26 203 -44 206 -53 3 -8 -15 -44 -39 -81 -90 -135 -85 -126 -63 -114
32 17 256 252 251 261 -3 5 -60 12 -126 16 -66 4 -120 11 -120 15 0 9 82 19
160 21 115 2 116 -2 -47 159 -80 80 -139 133 -130 118z"/>
<path d="M951 946 l-143 -143 39 -6 c21 -4 59 -7 84 -7 63 0 139 -11 139 -20
0 -4 -56 -11 -125 -15 -70 -4 -125 -11 -123 -16 5 -14 251 -260 255 -255 3 2
-14 32 -36 66 -23 34 -41 64 -41 67 0 4 -7 14 -16 24 -9 10 -14 24 -11 32 3 8
77 27 206 53 110 21 201 42 201 45 0 3 -24 10 -52 16 -29 6 -114 22 -188 37
-202 40 -192 27 -117 143 76 118 79 123 75 123 -2 0 -68 -65 -147 -144z"/>
<path d="M565 560 c-77 -77 -136 -140 -132 -140 4 0 41 23 83 50 41 28 78 50
80 50 3 0 12 7 20 15 26 25 43 18 49 -22 3 -21 12 -67 20 -103 27 -126 45
-215 47 -234 8 -52 25 -15 47 96 49 256 54 278 65 278 6 0 55 -30 110 -65 54
-36 100 -64 102 -62 2 1 -59 66 -136 142 -77 76 -142 136 -146 133 -3 -4 -8
-63 -11 -132 -9 -186 -21 -168 -39 57 -3 42 -9 77 -12 77 -4 0 -70 -63 -147
-140z"/>
</g>
</svg>
