<svg id="Camada_1" data-name="Camada 1" xmlns="http://www.w3.org/2000/svg" viewBox="0 0 23.77 25"><defs><style>.cls-1{fill:#020202;fill-rule:evenodd;}</style></defs><title>iconePedra</title><path class="cls-1" d="M15.19,23.74V21.68l2.37-1.56,0,.89,1.22.37a14.23,14.23,0,0,1-1.74,1.17c-.63.42-1.23.85-1.88,1.2Zm4.58-10.31c.09-.29.19-.37.31-.66s.1,0,.19-.33c.35-.31.14-.88,0-1.42-.06-.36-.2-.86-.22-1.22s.08-.81.07-1.26v-1l-1-5C18,2.23,10.94-.05,10.35,0l0,.42,2,.7c1.43.43,5.55,1.55,6.4,2,0,.92-.36,1.51.1,2s.09.61.1,2.05L18.79,8a1.61,1.61,0,0,0,.2.87,10.94,10.94,0,0,1,.41,1.17c.2.66.46.61.31,1.37A22.84,22.84,0,0,0,18.85,16c-.1.85-.07.82-.73,1.15l.25-2.51a9.9,9.9,0,0,0,.45-1.91l.17-.86c.29-.2,0-.9-.16-1.07-.13-.65-.73-1.74-.74-2.17s.29-2,.36-2.66c-.84-1.12-.39-.87-.35-2.45L8.65.64l-.07.49C9,1.46,17.12,3.78,17.2,3.8l.1,3.42c0,.26,0,.5,0,.76,0,0,0,.3,0,.3,0,.35,0,.11.08.29a4.08,4.08,0,0,1,.27,2.09,6.17,6.17,0,0,0,.17,2.22,12.13,12.13,0,0,1-.26,4.22c-.13.55-.27.65-.75.84a12.23,12.23,0,0,0,.43-3.33c0-1.07-.42-2.41-.3-3.41.22-1.95-.27-.88-.29-3.12,0-1.09,0-2.73-.13-3.78-.34-.24-9.41-2.94-9.7-2.91l0,.69c.75-.14,7.68,2.19,9,2.55-.26,1.81-.76.24,0,3.17a21.22,21.22,0,0,1,.65,3.55c.17,1.51-.29,1-.08,4a8.89,8.89,0,0,1-.09,2.05c-.1.91,0,1.09-.75,1.38a21.31,21.31,0,0,0,.15-3.65c-.09-1.52.25-2.2.09-3.69a19.13,19.13,0,0,0-.61-3.2c-.56-2.17-.41-1.1,0-3.12-.41-.27-8.46-2.67-8.79-2.64l0,.49,7.18,2.19a.65.65,0,0,1,0,.09l.62,3.44c0,.69-.11,1.5-.08,2.16s.48.91.7,1.41-.27,2.87-.37,3.61a3.45,3.45,0,0,0-.05,1.76,12.43,12.43,0,0,1,.5,1.6l-.46.37,1.07-.23c-1.81,1.15-.85,1-3.24.36C11,19.38,9.88,19,8.67,18.64c-.92-.28-6.72-2-7.09-2.17l1.67-1.14.24,1.08,10.72,3.25c-.34-1.79-.79-1.15-.45-3.41.13-.84.63-3,.32-3.62s-.63-.74-.66-1.35c-.08-2.2.35-.92-.2-3.93-.05-.28-.1-.56-.15-.84,0-.12,0-.32-.07-.43l-.18-.46L4.14,3c.07,3.59.11,1.48-.8,4.52-.28.92.86,1.56.51,2.7-.15.51-.27,1-.42,1.48-.78,2.76-.31,1.37-.27,3.07C2.4,15.28.8,16.22.27,16.67l0,4.24c1.5.21.65.85,2.91-.7,1.81-1.24,1.13-.69,3.15-.29v2.73a3,3,0,0,0,.84.29c.44.13.45.13.8-.09,1.37-.84,2.2-1.79,3.12-1.49a9.27,9.27,0,0,1,1.82.61l0,2.68a1.76,1.76,0,0,0,1.62.2L24,18.7V14.46l-3.29-.92c-.13-.14.06,0-.17-.13s-.22-.08-.34-.12l0,.52c-.51,1.07.5,1.94-.78,2.45a8.49,8.49,0,0,1,.25-2.65l.13-.19ZM8.62,21.74l0-1.1L9.75,21a7.33,7.33,0,0,1-1.13.75ZM2.55,19.92V18.83l1.15.34a6,6,0,0,1-1.15.75Zm17.33.73,0-2a11.51,11.51,0,0,1,1.81-1.17v.79l1.22.42A24.13,24.13,0,0,1,19.87,20.65Z" transform="translate(-0.23)"/></svg>