<?xml version="1.0" standalone="no"?>
<!DOCTYPE svg PUBLIC "-//W3C//DTD SVG 20010904//EN"
 "http://www.w3.org/TR/2001/REC-SVG-20010904/DTD/svg10.dtd">
<svg version="1.0" xmlns="http://www.w3.org/2000/svg"
 width="64.000000pt" height="63.000000pt" viewBox="0 0 64.000000 63.000000"
 preserveAspectRatio="xMidYMid meet">

<g transform="translate(0.000000,63.000000) scale(0.100000,-0.100000)"
fill="#000000" stroke="none">
<path d="M277 613 c-4 -3 -7 -39 -7 -80 0 -40 -3 -73 -7 -73 -4 0 -17 9 -29
21 -16 15 -29 19 -44 14 -21 -7 -17 -12 46 -76 l69 -70 6 68 c4 37 7 98 8 136
1 59 -1 67 -17 67 -10 0 -22 -3 -25 -7z"/>
<path d="M341 553 c1 -37 4 -99 8 -136 l6 -68 69 70 c62 63 66 70 47 76 -14 4
-30 -1 -49 -15 l-27 -22 -5 79 c-5 72 -7 78 -27 81 -22 3 -23 0 -22 -65z"/>
<path d="M157 464 c-13 -13 -7 -41 14 -68 l20 -26 -73 0 c-73 0 -98 -9 -98
-37 0 -14 86 -16 213 -4 l68 6 -69 68 c-37 37 -71 64 -75 61z"/>
<path d="M430 405 c-35 -35 -62 -66 -59 -69 2 -2 64 -8 137 -12 l134 -7 -4 24
c-3 23 -7 24 -80 27 -78 3 -91 9 -63 32 15 13 21 70 7 70 -4 0 -36 -29 -72
-65z"/>
<path d="M490 300 c-8 -5 -40 -10 -70 -10 l-54 0 64 -65 c35 -36 68 -65 72
-65 14 0 9 40 -8 65 l-16 25 65 0 c81 0 97 6 97 36 0 23 -3 24 -67 24 -38 0
-75 -5 -83 -10z"/>
<path d="M20 287 c0 -28 25 -37 99 -37 l74 0 -21 -23 c-22 -23 -29 -61 -14
-71 5 -3 39 26 76 63 l67 68 -92 6 c-142 11 -189 9 -189 -6z"/>
<path d="M243 208 c-35 -35 -63 -67 -63 -71 0 -13 47 -7 60 8 23 28 30 15 30
-54 0 -72 14 -99 46 -87 16 6 16 54 -3 204 l-8 63 -62 -63z"/>
<path d="M346 178 c-3 -50 -6 -111 -6 -135 0 -40 2 -44 23 -41 20 3 22 9 27
87 5 83 5 83 24 62 18 -20 76 -30 76 -13 0 9 -122 132 -131 132 -3 0 -9 -41
-13 -92z"/>
</g>
</svg>
